<svg xmlns="http://www.w3.org/2000/svg" viewBox="0 0 121.84 94.72"><g id="Layer_2" data-name="Layer 2"><g id="Layer_1-2" data-name="Layer 1"><path d="M26.34.82C15.24,2.52,10,4.52,5.44,9c-3.5,3.4-4.6,5.1-5.1,8.9-.9,5.6,0,9.9,2.6,13.3,2.4,3,4.8,3.2,8,.6,2.2-1.8,2.3-2.2,1.1-5.3-3.4-9.5,1.4-14.1,15.7-15.4,3.9-.4,7.1-.4,7.1,0s-.9,5.1-2,10.4c-2.8,14.1-8,47.1-8,51.4s1.9,5.8,6.9,5.8c4.6,0,5.7-2,7-12.7,1.5-12.1,3.4-23.6,6.8-41.7l2.6-13.9,14.8.7c12.9.6,14.9.4,16.4-1,2.5-2.5,1.5-6.6-2-8.4S36-.68,26.34.82Z"/><path d="M98.84,48.22v23.5H75.34c-12.9,0-23.5.3-23.5.8s4.8,5.6,10.8,11.5l10.7,10.7h48.5V46.22L111,35.42c-5.9-5.9-11.1-10.7-11.5-10.7S98.84,35.32,98.84,48.22Z"/><path d="M55.64,33.22c-2.6,1.5-4.6,5.1-3.4,6.2.3.4,1.7-.4,3.1-1.7s2.8-2,3.2-1.6.2,4.4-.5,8.9c-1.6,11.3-1.6,12.7.6,12.7,1.5,0,2.1-1.3,3.1-6.8,1.4-7.7,4.8-14.5,7.5-15,2-.4,2-.8,0,16.5-.5,4.4-.4,5.3.9,5.3,2.1,0,2.6-.9,3.8-7.7,1.1-5.9,4-12.6,6-13.8,2.5-1.6,3,1.3,1.6,8.7-1.6,8.5-.9,11.5,2.8,12.4,2.7.7,7.2-1.6,8.2-4.2.9-2.3-.5-2.9-2.5-1.1a6.22,6.22,0,0,1-3.7,1.7c-1.5,0-1.7-.6-1.1-4.3,1.7-11.2,1.8-14.7.6-16.2-1.8-2.2-4.5-1.9-7.7.9l-2.7,2.4-1.1-2.2c-1.6-3.3-5.1-3.2-8.5.3-2.3,2.3-3,2.6-3,1.2,0-1.9-1.9-4.1-3.4-4.1A16.71,16.71,0,0,0,55.64,33.22Z"/></g></g></svg>