<?xml version="1.0" encoding="utf-8"?>
<!-- Generator: Adobe Illustrator 26.0.1, SVG Export Plug-In . SVG Version: 6.00 Build 0)  -->
<svg version="1.1" id="Layer_1" xmlns="http://www.w3.org/2000/svg" xmlns:xlink="http://www.w3.org/1999/xlink" x="0px" y="0px"
	 viewBox="0 0 800 800" style="enable-background:new 0 0 800 800;" xml:space="preserve">
<style type="text/css">
	.st0{fill-rule:evenodd;clip-rule:evenodd;fill:#011627;}
</style>
<g id="SVGRepo_bgCarrier">
</g>
<g id="SVGRepo_tracerCarrier">
</g>
<g id="SVGRepo_iconCarrier">
	<path class="st0" d="M800,400c0,220.9-179.1,400-400,400C179.1,800,0,620.9,0,400C0,179.1,179.1,0,400,0C620.9,0,800,179.1,800,400
		z M200.2,280c0-22,17.8-40,39.8-40h320c22,0,40,18,40,40v240c0,22-18,40-40,40H240c-22,0-40-18-40-40L200.2,280z M400,420L240,320
		v200h320V320L400,420z M400,380L240,280h320L400,380z"/>
</g>
</svg>
